<?xml version="1.0" encoding="UTF-8"?>
<svg xmlns="http://www.w3.org/2000/svg" version="1.1" viewBox="0 0 141.5 112.3">
  <defs>
    <style>
      .cls-1 {
        fill: #c9cacb;
      }
    </style>
  </defs>
  <!-- Generator: Adobe Illustrator 28.7.1, SVG Export Plug-In . SVG Version: 1.2.0 Build 142)  -->
  <g>
    <g id="Layer_1">
      <g>
        <path class="cls-1" d="M38.9,65.5v-14.7h-.2c-.6,4.1-2,6.3-10,6.3h-10.8c-3.7,0-5.7-2-5.7-5.2v-20.2c0-3.2,2.1-5.2,5.7-5.2h16.1c5.3,0,11.4,6.5,13.8,9.9l-2.3-11H.2v.3c1.9,0,4.9,3.3,4.9,5.9v53.2c0,4-3.2,6-5.1,6v.3h17.2v-.3c-1.9,0-5-2-5-6v-26.8h16.5c8.1,0,9.4,2.9,10,7.4h.2Z"/>
        <path class="cls-1" d="M136.5,84.9V31.9c0-4,2.2-6,4.2-6v-.3h-11.2l-19,43.6c-2.3,5.3-3.1,5.2-5.6,0l-21.7-43.5h-12.2v.3c2.9,0,6.8,5.1,9,9.5l24.9,49.9,21.5-49.8c2.4-5.5,3.2-5,3.2,0v49.5c0,4-3.3,6-5.2,6v.3h17.2v-.3c-1.9,0-5.1-2-5.1-6Z"/>
        <polygon class="cls-1" points="58.4 18.5 59.4 20.9 60.4 18.5 65.1 13.8 63.8 10.4 65.1 7.1 60.4 2.4 59.4 0 58.4 2.4 53.7 7.1 55.1 10.4 53.7 13.8 58.4 18.5"/>
        <path class="cls-1" d="M67.3,90.9c-1.5,0-4.3-1-4.3-5.7v-26.8s0-26.8,0-26.8c0-4.7,2.8-5.7,4.3-5.7v-.3h-15.7v.3c1.9,0,4.2,1,4.2,5.7v53.7c0,4.7-2.3,5.7-4.2,5.7v.3h15.7v-.3Z"/>
        <polygon class="cls-1" points="1 102.4 4.4 102.4 4.4 112.1 5.7 112.1 5.7 102.4 9.2 102.4 9.2 101.3 1 101.3 1 102.4"/>
        <polygon class="cls-1" points="18.6 105.9 12.3 105.9 12.3 101.3 11 101.3 11 112.1 12.3 112.1 12.3 107.1 18.6 107.1 18.6 112.1 20 112.1 20 101.3 18.6 101.3 18.6 105.9"/>
        <rect class="cls-1" x="22.5" y="101.3" width="1.3" height="10.8"/>
        <polygon class="cls-1" points="34 109.7 27.8 101.3 26.4 101.3 26.4 112.1 27.7 112.1 27.7 103.4 34 112.1 35.3 112.1 35.3 101.3 34 101.3 34 109.7"/>
        <polygon class="cls-1" points="45.7 101.3 44 101.3 39.2 106.8 39.2 101.3 37.8 101.3 37.8 112.1 39.2 112.1 39.2 108.4 40.3 107.2 44.4 112.1 46 112.1 41.2 106.4 45.7 101.3"/>
        <rect class="cls-1" x="47.6" y="101.3" width="1.3" height="10.8"/>
        <polygon class="cls-1" points="59.1 109.7 52.8 101.3 51.5 101.3 51.5 112.1 52.8 112.1 52.8 103.4 59.1 112.1 60.4 112.1 60.4 101.3 59.1 101.3 59.1 109.7"/>
        <path class="cls-1" d="M67.2,107.7h3.7v2.2c-.5.5-1.6,1.2-2.9,1.2-2.4,0-4.2-1.8-4.2-4.4s1.8-4.4,4.2-4.4,2.4.6,3.1,1.5l1.1-.7c-1-1.2-2.3-2-4.2-2-3.1,0-5.6,2.2-5.6,5.6s2.5,5.6,5.6,5.6,3.2-.7,4.2-1.9v-3.9h-5.1v1.2Z"/>
        <path class="cls-1" d="M84.6,106.5c1-.2,1.9-1.1,1.9-2.5s-1.2-2.8-3-2.8h-4.8v10.8h4.9c2,0,3.1-1.2,3.1-2.9s-1-2.5-2.1-2.7ZM80,102.4h3.2c1.2,0,1.9.8,1.9,1.8s-.6,1.7-1.9,1.7h-3.2v-3.5ZM83.3,110.9h-3.3v-3.7h3.3c1.3,0,2,.9,2,1.9s-.7,1.9-2,1.9Z"/>
        <polygon class="cls-1" points="88.9 112.1 95.9 112.1 95.9 110.9 90.2 110.9 90.2 107.1 95.8 107.1 95.8 105.9 90.2 105.9 90.2 102.4 95.9 102.4 95.9 101.3 88.9 101.3 88.9 112.1"/>
        <polygon class="cls-1" points="101.9 106.3 98.5 101.3 97 101.3 101.2 107.5 101.2 112.1 102.6 112.1 102.6 107.5 106.8 101.3 105.3 101.3 101.9 106.3"/>
        <path class="cls-1" d="M112.5,101.1c-3.2,0-5.4,2.4-5.4,5.6s2.2,5.6,5.4,5.6,5.4-2.4,5.4-5.6-2.2-5.6-5.4-5.6ZM112.5,111.1c-2.4,0-4-1.9-4-4.4s1.5-4.4,4-4.4,4,1.9,4,4.4-1.6,4.4-4,4.4Z"/>
        <polygon class="cls-1" points="127.6 109.7 121.4 101.3 120 101.3 120 112.1 121.3 112.1 121.3 103.4 127.6 112.1 128.9 112.1 128.9 101.3 127.6 101.3 127.6 109.7"/>
        <path class="cls-1" d="M135.2,101.3h-3.7v10.8h3.7c3.4,0,5.5-2.3,5.5-5.4s-2.2-5.4-5.5-5.4ZM135.2,110.9h-2.4v-8.4h2.4c2.7,0,4.1,1.9,4.1,4.2s-1.5,4.2-4.1,4.2Z"/>
      </g>
    </g>
  </g>
</svg>